:SAMPLES-PER-SECOND 30
:FULLY-SPECIFIED
:DEGREES
342
root  28.6944 34.5697 -34.1976 -168.874 34.3214 -175.255
RightUpLeg  -19.5684 -28.2437 -1.43597
RightLeg  34.3969 -3.25734 -1.94811
RightFoot  7.04698 0.0503773 -0.267476
RightToes  -39.3706 -0.213475 -0.311539
Spine  0.189526 0.421857 -1.43988
Spine1  0.347878 1.0251 -2.26532
HEad  -52.1476 -3.39575 0.733639
LeftShoulder1  -1.94126e-019 -3.10601e-018 -2.51263e-017
LeftArm  7.11559 13.1917 -67.8281
LeftForeArm  84.6631 -79.9055 -68.174
LeftHand  -0.897343 -2.81217 12.9038
RightShoulder  -4.96962e-017 0 -2.36833e-017
RightArm  -7.4463 -26.9659 77.0244
RightForeArm  59.6114 52.0843 9.79224
RightHand  -0.436176 7.37799 -4.31833
LeftUpLeg  -20.728 15.3979 4.69985
LeftLeg  23.5054 18.3413 6.46853
LeftFoot  6.62431 -0.136008 2.51138
LeftToes  -36.2463 1.9075e-006 4.29692e-008
343
root  28.1591 34.454 -33.76 -169.846 36.204 -176.198
RightUpLeg  -17.5931 -26.8732 -1.12953
RightLeg  37.6775 0.7432 0.480881
RightFoot  4.87362 0.0111926 0.258542
RightToes  -41.2167 -0.228275 -0.321892
Spine  0.382481 0.684356 -1.68117
Spine1  0.69983 1.5686 -2.75204
HEad  -53.2798 -3.60363 0.904705
LeftShoulder1  -1.94126e-019 -3.10601e-018 -2.51263e-017
LeftArm  7.94078 11.6411 -66.6608
LeftForeArm  71.5338 -78.5996 -55.025
LeftHand  -0.964164 -3.05943 13.4525
RightShoulder  -4.96962e-017 0 -2.36833e-017
RightArm  -6.48791 -25.7373 78.0646
RightForeArm  59.6216 54.1843 10.7137
RightHand  -0.580902 6.59111 -5.9593
LeftUpLeg  -21.1945 18.7404 3.13184
LeftLeg  23.4188 16.9306 5.96142
LeftFoot  6.60362 -0.124321 2.31625
LeftToes  -36.3642 1.9075e-006 4.29692e-008
344
root  27.604 34.2392 -33.2577 -170.706 37.6523 -177.141
RightUpLeg  -15.1499 -26.2384 -0.684111
RightLeg  38.4183 1.33662 0.905073
RightFoot  2.10979 0.00459432 0.250989
RightToes  -43.3732 -0.245975 -0.333373
Spine  0.48307 0.82611 -1.79311
Spine1  0.873314 1.88187 -2.99108
HEad  -53.0908 -3.76319 0.762659
LeftShoulder1  -1.94126e-019 -3.10601e-018 -2.51263e-017
LeftArm  9.00809 9.53977 -66.0167
LeftForeArm  53.5951 -74.5085 -36.4456
LeftHand  -0.886093 -2.85542 12.6821
RightShoulder  -4.96962e-017 0 -2.36833e-017
RightArm  -6.0467 -23.4796 79.0435
RightForeArm  58.3224 53.5242 10.4921
RightHand  -0.777871 5.41951 -8.64519
LeftUpLeg  -23.5305 22.7488 1.45608
LeftLeg  26.1269 14.08 5.73494
LeftFoot  5.79841 -0.0810837 1.76252
LeftToes  -36.1606 1.9075e-006 4.29692e-008
345
root  27.0302 33.9079 -32.6002 -170.356 38.5345 -176.671
RightUpLeg  -12.3168 -26.2727 0.785104
RightLeg  33.9206 -0.478328 -0.293466
RightFoot  -4.14707 -0.0109809 0.254697
RightToes  -36.1729 -0.188655 -0.292499
Spine  0.717137 1.0206 -1.40278
Spine1  1.35414 2.30127 -2.23709
HEad  -53.067 -4.47074 0.355744
LeftShoulder1  -1.94126e-019 -3.10601e-018 -2.51263e-017
LeftArm  11.4979 5.93432 -66.3518
LeftForeArm  43.1533 -67.1981 -22.595
LeftHand  -0.956912 -2.86605 13.653
RightShoulder  -4.96962e-017 0 -2.36833e-017
RightArm  -5.25204 -19.6967 79.0601
RightForeArm  55.8186 50.7051 9.45496
RightHand  -0.8703 3.75311 -11.2778
LeftUpLeg  -28.4541 25.3826 0.819533
LeftLeg  32.4041 11.7453 6.36016
LeftFoot  4.72075 -0.0477483 1.31991
LeftToes  -34.7082 1.9075e-006 4.29692e-008
346
root  26.3819 33.5219 -31.7746 -169.735 39.2335 -175.17
RightUpLeg  -10.9826 -26.268 2.70717
RightLeg  28.7769 -0.439912 -0.2147
RightFoot  -8.64494 -0.0192915 0.293977
RightToes  -28.1037 -0.131083 -0.238572
Spine  1.53939 1.26517 -0.698978
Spine1  3.00527 2.83965 -0.88828
HEad  -55.3389 -5.19271 0.79241
LeftShoulder1  -1.94126e-019 -3.10601e-018 -2.51263e-017
LeftArm  14.9431 0.593382 -67.3005
LeftForeArm  41.5617 -57.2186 -13.8306
LeftHand  -0.877722 -3.37796 11.8504
RightShoulder  -4.96962e-017 0 -2.36833e-017
RightArm  -3.25284 -13.5319 78.0731
RightForeArm  53.9848 45.5508 7.6922
RightHand  -0.850753 2.71296 -12.3722
LeftUpLeg  -35.6395 26.5252 1.1483
LeftLeg  42.3082 10.6514 8.39438
LeftFoot  7.94328 -0.136934 2.13365
LeftToes  -39.2127 1.9075e-006 4.29692e-008
347
root  25.6034 33.1774 -30.8172 -169.511 41.2313 -173.931
RightUpLeg  -13.4925 -23.9593 4.28371
RightLeg  30.5897 -0.788204 -0.41054
RightFoot  -10.8384 -0.013532 0.407717
RightToes  -25.4785 -0.114057 -0.219346
Spine  2.98068 1.599 -0.113751
Spine1  5.84587 3.58808 0.170303
HEad  -59.6329 -5.13163 1.63833
LeftShoulder1  -1.94126e-019 -3.10601e-018 -2.51263e-017
LeftArm  17.0216 -4.88084 -68.4911
LeftForeArm  42.3922 -45.961 -8.59029
LeftHand  -0.877408 -3.82852 11.2954
RightShoulder  -4.96962e-017 0 -2.36833e-017
RightArm  -0.340832 -4.13357 77.206
RightForeArm  55.1247 36.231 4.98439
RightHand  -0.986844 4.0721 -12.3338
LeftUpLeg  -43.3003 29.2924 1.19365
LeftLeg  51.8815 8.83417 9.73668
LeftFoot  15.7916 -0.52054 3.91358
LeftToes  -45.5305 1.9075e-006 4.29692e-008
348
root  24.8773 32.9787 -30.0315 -168.843 45.3934 -172.605
RightUpLeg  -17.4714 -23.1651 5.26653
RightLeg  34.802 1.91572 1.14027
RightFoot  -10.5837 -0.0592462 -0.104512
RightToes  -23.8502 -0.103945 -0.207035
Spine  4.32551 2.32112 0.199453
Spine1  8.35401 5.63222 0.224918
HEad  -62.2964 -4.86352 3.52779
LeftShoulder1  -1.94126e-019 -3.10601e-018 -2.51263e-017
LeftArm  17.8387 -7.64866 -68.627
LeftForeArm  40.7666 -37.2221 -6.01537
LeftHand  -0.604164 -3.87635 7.83324
RightShoulder  -4.96962e-017 0 -2.36833e-017
RightArm  4.71777 6.58824 78.1433
RightForeArm  57.9356 22.1644 1.8776
RightHand  -1.13216 4.93769 -12.9663
LeftUpLeg  -48.1246 33.6913 2.1246
LeftLeg  57.7994 6.49291 8.87263
LeftFoot  21.3048 -0.820198 4.52015
LeftToes  -46.1714 1.9075e-006 4.29692e-008
